<mxfile host="65bd71144e">
    <diagram id="u79CN8P1TTN_0yYjMMCz" name="Page-1">
        <mxGraphModel dx="906" dy="546" grid="1" gridSize="10" guides="1" tooltips="1" connect="1" arrows="1" fold="1" page="1" pageScale="1" pageWidth="850" pageHeight="1100" math="0" shadow="0">
            <root>
                <mxCell id="0"/>
                <mxCell id="1" parent="0"/>
                <mxCell id="14" value="≪device≫&lt;br&gt;Servidor de base de datos" style="verticalAlign=top;align=center;shape=cube;size=10;direction=south;fontStyle=0;html=1;boundedLbl=1;spacingLeft=5;fillColor=none;fontColor=#006EAF;strokeColor=#006EAF;" parent="1" vertex="1">
                    <mxGeometry x="630" y="350" width="200" height="320" as="geometry"/>
                </mxCell>
                <mxCell id="21" value="≪databaseSystem≫&lt;br&gt;Oracle 10g" style="verticalAlign=top;align=center;shape=cube;size=10;direction=south;fontStyle=0;html=1;boundedLbl=1;spacingLeft=5;fillColor=none;fontColor=#006EAF;strokeColor=#006EAF;" parent="1" vertex="1">
                    <mxGeometry x="640" y="400" width="170" height="260" as="geometry"/>
                </mxCell>
                <mxCell id="64" value="≪protocol≫&lt;br&gt;TCP/IP" style="edgeStyle=none;html=1;exitX=0;exitY=0;exitDx=265;exitDy=0;exitPerimeter=0;entryX=0.487;entryY=1.009;entryDx=0;entryDy=0;entryPerimeter=0;fillColor=#1ba1e2;strokeColor=#006EAF;endArrow=none;endFill=0;fontColor=#006EAF;labelBackgroundColor=none;" parent="1" source="6" target="14" edge="1">
                    <mxGeometry x="0.0122" y="25" relative="1" as="geometry">
                        <mxPoint as="offset"/>
                    </mxGeometry>
                </mxCell>
                <mxCell id="6" value="≪device≫&lt;br&gt;Servidor de aplicación" style="verticalAlign=top;align=center;shape=cube;size=10;direction=south;fontStyle=0;html=1;boundedLbl=1;spacingLeft=5;fillColor=none;fontColor=#006EAF;strokeColor=#006EAF;" parent="1" vertex="1">
                    <mxGeometry x="40" y="240" width="470" height="540" as="geometry"/>
                </mxCell>
                <mxCell id="11" value="≪JSP server≫&lt;br&gt;Tomcat 5.5" style="verticalAlign=top;align=center;shape=cube;size=10;direction=south;fontStyle=0;html=1;boundedLbl=1;spacingLeft=5;fillColor=none;fontColor=#006EAF;strokeColor=#006EAF;" parent="1" vertex="1">
                    <mxGeometry x="50" y="290" width="440" height="480" as="geometry"/>
                </mxCell>
                <mxCell id="12" value="≪schema≫&lt;br&gt;Users" style="html=1;dropTarget=0;fillColor=none;fontColor=#006EAF;strokeColor=#006EAF;verticalAlign=middle;" parent="1" vertex="1">
                    <mxGeometry x="650" y="450" width="140" height="60" as="geometry"/>
                </mxCell>
                <mxCell id="29" value="≪executionEnvironment≫&lt;br&gt;Catalina Servlet 2.4/JSP 2.0 Container" style="verticalAlign=top;align=center;shape=cube;size=10;direction=south;fontStyle=0;html=1;boundedLbl=1;spacingLeft=5;fillColor=none;fontColor=#006EAF;strokeColor=#006EAF;" parent="1" vertex="1">
                    <mxGeometry x="60" y="340" width="410" height="420" as="geometry"/>
                </mxCell>
                <mxCell id="33" value="" style="group" parent="1" vertex="1" connectable="0">
                    <mxGeometry x="70" y="610" width="180" height="60" as="geometry"/>
                </mxCell>
                <mxCell id="22" value="≪component≫&lt;br&gt;OnlineOrders" style="html=1;dropTarget=0;fillColor=none;fontColor=#006EAF;strokeColor=#006EAF;" parent="33" vertex="1">
                    <mxGeometry x="40" width="140" height="60" as="geometry"/>
                </mxCell>
                <mxCell id="23" value="" style="shape=module;jettyWidth=8;jettyHeight=4;fillColor=none;fontColor=#006EAF;strokeColor=#006EAF;" parent="22" vertex="1">
                    <mxGeometry x="1" width="20" height="20" relative="1" as="geometry">
                        <mxPoint x="-27" y="7" as="offset"/>
                    </mxGeometry>
                </mxCell>
                <mxCell id="32" value="" style="html=1;verticalAlign=bottom;labelBackgroundColor=none;startArrow=oval;startFill=0;startSize=8;endArrow=none;fillColor=#1ba1e2;strokeColor=#006EAF;entryX=0;entryY=0.5;entryDx=0;entryDy=0;" parent="33" target="22" edge="1">
                    <mxGeometry x="-1" y="3" relative="1" as="geometry">
                        <mxPoint y="30" as="sourcePoint"/>
                        <mxPoint x="480" y="-170" as="targetPoint"/>
                    </mxGeometry>
                </mxCell>
                <mxCell id="34" value="&lt;span style=&quot;color: rgb(0, 110, 175); font-size: 12px;&quot;&gt;≪manifest≫&lt;/span&gt;" style="endArrow=open;html=1;rounded=0;align=center;verticalAlign=bottom;dashed=1;endFill=0;labelBackgroundColor=none;fillColor=#1ba1e2;strokeColor=#006EAF;" parent="1" source="30" target="22" edge="1">
                    <mxGeometry x="0.1429" y="-40" relative="1" as="geometry">
                        <mxPoint x="270" y="560" as="sourcePoint"/>
                        <mxPoint x="430" y="560" as="targetPoint"/>
                        <mxPoint as="offset"/>
                    </mxGeometry>
                </mxCell>
                <mxCell id="39" value="" style="endArrow=none;html=1;endSize=12;startArrow=diamondThin;startSize=14;startFill=1;align=left;verticalAlign=bottom;fillColor=#1ba1e2;strokeColor=#006EAF;endFill=0;rounded=0;" parent="1" source="30" target="37" edge="1">
                    <mxGeometry x="-1" y="3" relative="1" as="geometry">
                        <mxPoint x="360" y="730" as="sourcePoint"/>
                        <mxPoint x="520" y="730" as="targetPoint"/>
                    </mxGeometry>
                </mxCell>
                <mxCell id="41" value="" style="endArrow=none;html=1;endSize=12;startArrow=diamondThin;startSize=14;startFill=1;align=left;verticalAlign=bottom;fillColor=#1ba1e2;strokeColor=#006EAF;endFill=0;rounded=0;" parent="1" source="30" target="38" edge="1">
                    <mxGeometry x="-1" y="3" relative="1" as="geometry">
                        <mxPoint x="260" y="520" as="sourcePoint"/>
                        <mxPoint x="360" y="520" as="targetPoint"/>
                    </mxGeometry>
                </mxCell>
                <mxCell id="42" value="≪deploymentSpec≫&lt;br&gt;web.xml" style="html=1;dropTarget=0;fillColor=none;fontColor=#006EAF;strokeColor=#006EAF;" parent="1" vertex="1">
                    <mxGeometry x="310" y="400" width="140" height="60" as="geometry"/>
                </mxCell>
                <mxCell id="43" value="" style="endArrow=open;html=1;rounded=0;align=center;verticalAlign=bottom;dashed=1;endFill=0;labelBackgroundColor=none;fillColor=#1ba1e2;strokeColor=#006EAF;" parent="1" source="42" target="30" edge="1">
                    <mxGeometry x="0.1429" y="-40" relative="1" as="geometry">
                        <mxPoint x="190" y="550" as="sourcePoint"/>
                        <mxPoint x="190" y="620" as="targetPoint"/>
                        <mxPoint as="offset"/>
                    </mxGeometry>
                </mxCell>
                <mxCell id="44" value="" style="group" parent="1" vertex="1" connectable="0">
                    <mxGeometry x="270" y="690" width="180" height="60" as="geometry"/>
                </mxCell>
                <mxCell id="45" value="≪component≫&lt;br&gt;UserServices" style="html=1;dropTarget=0;fillColor=none;fontColor=#006EAF;strokeColor=#006EAF;" parent="44" vertex="1">
                    <mxGeometry x="40" width="140" height="60" as="geometry"/>
                </mxCell>
                <mxCell id="46" value="" style="shape=module;jettyWidth=8;jettyHeight=4;fillColor=none;fontColor=#006EAF;strokeColor=#006EAF;" parent="45" vertex="1">
                    <mxGeometry x="1" width="20" height="20" relative="1" as="geometry">
                        <mxPoint x="-27" y="7" as="offset"/>
                    </mxGeometry>
                </mxCell>
                <mxCell id="47" value="" style="html=1;verticalAlign=bottom;labelBackgroundColor=none;startArrow=oval;startFill=0;startSize=8;endArrow=none;fillColor=#1ba1e2;strokeColor=#006EAF;entryX=0;entryY=0.5;entryDx=0;entryDy=0;" parent="44" target="45" edge="1">
                    <mxGeometry x="-1" y="3" relative="1" as="geometry">
                        <mxPoint y="30" as="sourcePoint"/>
                        <mxPoint x="480" y="-170" as="targetPoint"/>
                    </mxGeometry>
                </mxCell>
                <mxCell id="48" value="&lt;span style=&quot;color: rgb(0, 110, 175); font-size: 12px;&quot;&gt;≪manifest≫&lt;/span&gt;" style="endArrow=open;html=1;rounded=0;align=center;verticalAlign=bottom;dashed=1;endFill=0;labelBackgroundColor=none;fillColor=#1ba1e2;strokeColor=#006EAF;" parent="1" source="37" target="45" edge="1">
                    <mxGeometry x="0.1429" y="-40" relative="1" as="geometry">
                        <mxPoint x="390" y="620" as="sourcePoint"/>
                        <mxPoint x="390" y="690" as="targetPoint"/>
                        <mxPoint as="offset"/>
                    </mxGeometry>
                </mxCell>
                <mxCell id="49" value="≪schema≫&lt;br&gt;Orders" style="html=1;dropTarget=0;fillColor=none;fontColor=#006EAF;strokeColor=#006EAF;verticalAlign=middle;" parent="1" vertex="1">
                    <mxGeometry x="650" y="520" width="140" height="60" as="geometry"/>
                </mxCell>
                <mxCell id="51" value="≪schema≫&lt;br&gt;Inventory" style="html=1;dropTarget=0;fillColor=none;fontColor=#006EAF;strokeColor=#006EAF;verticalAlign=middle;" parent="1" vertex="1">
                    <mxGeometry x="650" y="590" width="140" height="60" as="geometry"/>
                </mxCell>
                <mxCell id="57" value="" style="group" parent="1" vertex="1" connectable="0">
                    <mxGeometry x="310" y="480" width="140" height="60" as="geometry"/>
                </mxCell>
                <mxCell id="38" value="≪artifact≫&lt;br&gt;web-tools-lib.jar" style="html=1;dropTarget=0;fillColor=none;fontColor=#006EAF;strokeColor=#006EAF;" parent="57" vertex="1">
                    <mxGeometry width="140" height="60" as="geometry"/>
                </mxCell>
                <mxCell id="56" value="" style="html=1;verticalLabelPosition=bottom;align=center;labelBackgroundColor=#ffffff;verticalAlign=top;strokeWidth=1;strokeColor=#006EAF;shadow=0;dashed=0;shape=mxgraph.ios7.icons.document;fillColor=none;fontColor=#ffffff;" parent="57" vertex="1">
                    <mxGeometry x="118" y="6" width="16" height="20" as="geometry"/>
                </mxCell>
                <mxCell id="61" value="" style="group" parent="1" vertex="1" connectable="0">
                    <mxGeometry x="310" y="560" width="140" height="60" as="geometry"/>
                </mxCell>
                <mxCell id="37" value="≪artifact≫&lt;br&gt;user_services.jar" style="html=1;dropTarget=0;fillColor=none;fontColor=#006EAF;strokeColor=#006EAF;" parent="61" vertex="1">
                    <mxGeometry width="140" height="60" as="geometry"/>
                </mxCell>
                <mxCell id="60" value="" style="html=1;verticalLabelPosition=bottom;align=center;labelBackgroundColor=#ffffff;verticalAlign=top;strokeWidth=1;strokeColor=#006EAF;shadow=0;dashed=0;shape=mxgraph.ios7.icons.document;fillColor=none;fontColor=#ffffff;" parent="61" vertex="1">
                    <mxGeometry x="118" y="6" width="16" height="20" as="geometry"/>
                </mxCell>
                <mxCell id="63" value="" style="group" parent="1" vertex="1" connectable="0">
                    <mxGeometry x="110" y="480" width="140" height="60" as="geometry"/>
                </mxCell>
                <mxCell id="30" value="≪artifact≫&lt;br&gt;book_club_app.war" style="html=1;dropTarget=0;fillColor=none;fontColor=#006EAF;strokeColor=#006EAF;" parent="63" vertex="1">
                    <mxGeometry width="140" height="60" as="geometry"/>
                </mxCell>
                <mxCell id="62" value="" style="html=1;verticalLabelPosition=bottom;align=center;labelBackgroundColor=#ffffff;verticalAlign=top;strokeWidth=1;strokeColor=#006EAF;shadow=0;dashed=0;shape=mxgraph.ios7.icons.document;fillColor=none;fontColor=#ffffff;" parent="63" vertex="1">
                    <mxGeometry x="118" y="6" width="16" height="20" as="geometry"/>
                </mxCell>
            </root>
        </mxGraphModel>
    </diagram>
</mxfile>